<?xml version="1.0" encoding="utf-8"?>
<svg viewBox="0 0 192 192" xmlns="http://www.w3.org/2000/svg">
	<path
		d="M 97 192 C 91.5 192 86.793 190.118 82.88 186.365 C 78.966 182.611 77.006 178.09 77 172.8 L 117 172.8 C 117 178.08 115.044 182.602 111.13 186.365 C 107.216 190.128 102.506 192.009 97 192 M 67 163.2 C 64.166 163.2 61.794 162.278 59.88 160.435 C 57.966 158.592 57.006 156.317 57 153.6 C 57 150.883 57.96 148.598 59.88 146.765 C 61.8 144.931 64.173 144.009 67 144 L 127 144 C 129.834 144 132.21 144.922 134.13 146.765 C 136.05 148.608 137.006 150.883 137 153.6 C 137 156.317 136.04 158.602 134.12 160.444 C 132.2 162.288 129.827 163.209 127 163.2 L 67 163.2 Z M 59.5 134.4 C 48 127.843 38.873 119.04 32.12 108 C 25.366 96.96 21.993 84.96 22 72 C 22 52.003 29.294 35.002 43.88 21.005 C 58.466 7.008 76.173 0.009 97 0 C 117.834 0 135.543 6.998 150.13 21.005 C 164.716 35.011 172.007 52.003 172 72 C 172 84.96 168.627 96.96 161.88 108 C 155.134 119.04 146.006 127.843 134.5 134.4 L 59.5 134.4 Z M 65.5 115.2 L 128.5 115.2 C 136 110.083 141.794 103.757 145.88 96.24 C 149.966 88.723 152.006 80.64 152 72 C 152 57.283 146.666 44.803 136 34.56 C 125.334 24.317 112.334 19.2 97 19.2 C 81.666 19.2 68.666 24.317 58 34.56 C 47.334 44.803 42 57.283 42 72 C 42 80.64 44.043 88.723 48.13 96.24 C 52.216 103.757 58.007 110.083 65.5 115.2 M 97 115.2"
		style="fill: rgb(35, 39, 46)"
	/>
	<path
		d="M 98.983 181.768 C 94.064 181.768 89.867 180.076 86.359 176.732 C 82.861 173.379 81.112 169.32 81.112 164.622 L 116.852 164.622 C 116.852 169.32 115.093 173.379 111.605 176.732 C 108.097 180.087 103.89 181.768 98.983 181.768 M 72.183 156.045 C 69.641 156.045 67.521 155.209 65.814 153.574 C 64.106 151.911 63.242 149.873 63.242 147.45 C 63.242 145.016 64.106 142.987 65.814 141.352 C 67.532 139.707 69.651 138.9 72.183 138.9 L 125.783 138.9 C 128.303 138.9 130.432 139.707 132.15 141.352 C 133.858 143.006 134.712 145.026 134.712 147.45 C 134.712 149.882 133.858 151.921 132.14 153.583 C 130.422 155.218 128.292 156.045 125.783 156.045 L 72.183 156.045 Z M 65.474 130.303 C 55.208 124.431 47.049 116.588 41.021 106.723 C 34.981 96.877 31.967 86.148 31.976 74.555 C 31.976 56.696 38.489 41.524 51.524 29.02 C 64.548 16.505 80.371 10.248 98.983 10.248 C 117.593 10.248 133.415 16.496 146.441 29.02 C 159.464 41.524 165.976 56.705 165.976 74.555 C 165.976 86.148 162.962 96.877 156.934 106.723 C 150.915 116.588 142.747 124.431 132.479 130.303 L 65.474 130.303 Z M 70.834 113.158 L 127.13 113.158 C 133.817 108.565 139.001 102.947 142.654 96.21 C 146.286 89.492 148.107 82.269 148.107 74.555 C 148.107 61.412 143.343 50.269 133.817 41.119 C 124.29 31.978 112.665 27.394 98.983 27.394 C 85.268 27.394 73.664 31.978 64.136 41.119 C 54.61 50.269 49.837 61.412 49.837 74.555 C 49.837 82.269 51.658 89.492 55.321 96.21 C 58.962 102.947 64.136 108.565 70.834 113.158 M 98.983 113.158"
		style="fill: rgb(0, 122, 125); transform-origin: 95.876px 96.075px"
	/>
</svg>
