<?xml version="1.0" encoding="utf-8"?>
<svg viewBox="0 0 24 24" xmlns="http://www.w3.org/2000/svg">
	<path
		d="M12 22q-.825 0-1.412-.587T10 20h4q0 .825-.587 1.413T12 22m-3-3q-.425 0-.712-.288T8 18q0-.425.288-.712T9 17h6q.425 0 .713.288T16 18q0 .425-.288.713T15 19zm-.75-3q-1.725-1.025-2.738-2.75T4.5 9.5q0-3.125 2.188-5.312T12 2q3.125 0 5.313 2.188T19.5 9.5q0 2.025-1.012 3.75T15.75 16zm.6-2h6.3q1.125-.8 1.738-1.975T17.5 9.5q0-2.3-1.6-3.9T12 4Q9.7 4 8.1 5.6T6.5 9.5q0 1.35.613 2.525T8.85 14M12 14"
		style="fill: rgb(35, 39, 46)"
	/>
	<path
		d="M 12.05 21.174 C 11.572 21.174 11.164 20.994 10.823 20.638 C 10.483 20.281 10.313 19.849 10.313 19.349 L 13.787 19.349 C 13.787 19.849 13.616 20.281 13.277 20.638 C 12.936 20.995 12.527 21.174 12.05 21.174 M 9.445 18.436 C 9.198 18.436 8.992 18.347 8.826 18.173 C 8.66 17.996 8.576 17.779 8.576 17.521 C 8.576 17.262 8.66 17.046 8.826 16.872 C 8.993 16.697 9.199 16.611 9.445 16.611 L 14.655 16.611 C 14.9 16.611 15.107 16.697 15.274 16.872 C 15.44 17.048 15.523 17.263 15.523 17.521 C 15.523 17.78 15.44 17.997 15.273 18.174 C 15.106 18.348 14.899 18.436 14.655 18.436 L 9.445 18.436 Z M 8.793 15.696 C 7.795 15.071 7.002 14.236 6.416 13.186 C 5.829 12.138 5.536 10.996 5.537 9.762 C 5.537 7.861 6.17 6.246 7.437 4.915 C 8.703 3.583 10.241 2.917 12.05 2.917 C 13.859 2.917 15.397 3.582 16.663 4.915 C 17.929 6.246 18.562 7.862 18.562 9.762 C 18.562 10.996 18.269 12.138 17.683 13.186 C 17.098 14.236 16.304 15.071 15.306 15.696 L 8.793 15.696 Z M 9.314 13.871 L 14.786 13.871 C 15.436 13.382 15.94 12.784 16.295 12.067 C 16.648 11.352 16.825 10.583 16.825 9.762 C 16.825 8.363 16.362 7.177 15.436 6.203 C 14.51 5.23 13.38 4.742 12.05 4.742 C 10.717 4.742 9.589 5.23 8.663 6.203 C 7.737 7.177 7.273 8.363 7.273 9.762 C 7.273 10.583 7.45 11.352 7.806 12.067 C 8.16 12.784 8.663 13.382 9.314 13.871 M 12.05 13.871"
		style="fill: rgb(0, 122, 125)"
	/>
</svg>
