<?xml version="1.0" encoding="utf-8"?>
<svg viewBox="0 0 512 512" xmlns="http://www.w3.org/2000/svg">
	<path
		d="M 260 512 C 245.333 512 232.782 506.982 222.347 496.973 C 211.911 486.963 206.684 474.906 206.667 460.8 L 313.333 460.8 C 313.333 474.88 308.116 486.937 297.68 496.973 C 287.244 507.008 274.684 512.025 260 512 M 180 435.2 C 172.444 435.2 166.116 432.742 161.013 427.827 C 155.911 422.912 153.351 416.845 153.333 409.6 C 153.333 402.355 155.893 396.262 161.013 391.373 C 166.133 386.483 172.462 384.026 180 384 L 340 384 C 347.556 384 353.893 386.458 359.013 391.373 C 364.133 396.288 366.684 402.355 366.667 409.6 C 366.667 416.845 364.107 422.938 358.987 427.853 C 353.867 432.768 347.538 435.226 340 435.2 L 180 435.2 Z M 160 358.4 C 129.333 340.915 104.996 317.44 86.987 288 C 68.978 258.56 59.982 226.56 60 192 C 60 138.675 79.449 93.338 118.347 56.013 C 157.244 18.688 204.462 0.026 260 0 C 315.556 0 362.782 18.662 401.68 56.013 C 440.578 93.363 460.018 138.675 460 192 C 460 226.56 451.004 258.56 433.013 288 C 415.022 317.44 390.684 340.915 360 358.4 L 160 358.4 Z M 176 307.2 L 344 307.2 C 364 293.555 379.449 276.685 390.347 256.64 C 401.244 236.595 406.684 215.04 406.667 192 C 406.667 152.755 392.444 119.475 364 92.16 C 335.556 64.845 300.889 51.2 260 51.2 C 219.111 51.2 184.444 64.845 156 92.16 C 127.556 119.475 113.333 152.755 113.333 192 C 113.333 215.04 118.782 236.595 129.68 256.64 C 140.578 276.685 156.018 293.555 176 307.2 M 260 307.2"
		style="fill: rgb(35, 39, 46); transform-origin: 316px 256px"
	/>
	<path
		d="M 261.016 491.336 C 247.51 491.336 235.983 486.691 226.349 477.507 C 216.741 468.296 211.939 457.151 211.939 444.25 L 310.092 444.25 C 310.092 457.151 305.261 468.296 295.683 477.507 C 286.047 486.718 274.492 491.336 261.016 491.336 M 187.416 420.695 C 180.438 420.695 174.617 418.398 169.928 413.908 C 165.237 409.342 162.863 403.744 162.863 397.087 C 162.863 390.404 165.237 384.831 169.928 380.341 C 174.646 375.827 180.465 373.608 187.416 373.608 L 334.616 373.608 C 341.538 373.608 347.385 375.827 352.105 380.341 C 356.794 384.884 359.139 390.431 359.139 397.087 C 359.139 403.769 356.794 409.367 352.076 413.934 C 347.357 418.423 341.509 420.695 334.616 420.695 L 187.416 420.695 Z M 168.993 350 C 140.798 333.875 118.393 312.332 101.836 285.241 C 85.251 258.202 76.973 228.737 77 196.901 C 77 147.854 94.886 106.185 130.684 71.846 C 166.451 37.479 209.905 20.296 261.016 20.296 C 312.125 20.296 355.579 37.453 391.349 71.846 C 427.117 106.185 445 147.879 445 196.901 C 445 228.737 436.723 258.202 420.168 285.241 C 403.638 312.332 381.206 333.875 353.008 350 L 168.993 350 Z M 183.713 302.915 L 338.317 302.915 C 356.682 290.298 370.92 274.87 380.951 256.369 C 390.925 237.922 395.927 218.083 395.927 196.901 C 395.927 160.805 382.844 130.206 356.682 105.076 C 330.519 79.973 298.592 67.383 261.016 67.383 C 223.354 67.383 191.485 79.973 165.32 105.076 C 139.158 130.206 126.048 160.805 126.048 196.901 C 126.048 218.083 131.051 237.922 141.109 256.369 C 151.11 274.87 165.32 290.298 183.713 302.915 M 261.016 302.915"
		style="fill: rgb(0, 122, 125); transform-origin: 252.485px 256px"
	/>
</svg>
